<svg xmlns="http://www.w3.org/2000/svg" viewBox="0 0 626 49.94"><path d="M42.72,7.21l-4.15,7.64Q31.74,8.63,21.18,8.13a22.78,22.78,0,0,0-6.76.92,8.48,8.48,0,0,0-3.62,2.12,4.39,4.39,0,0,0-1.37,3.11Q9.43,17,13.09,18A51.24,51.24,0,0,0,20.41,19l5.56.57a45.66,45.66,0,0,1,7.85,1.49,17.86,17.86,0,0,1,5.24,2.55,12,12,0,0,1,3.62,4.6,14.69,14.69,0,0,1-1.79,15.07Q38,46.9,32,48.67a36.35,36.35,0,0,1-9.78,1.27q-9.43,0-22.17-6.79l3.17-8.21A29.92,29.92,0,0,0,12,39.51a31,31,0,0,0,10.42,2.23,19.59,19.59,0,0,0,8.23-1.56,8.9,8.9,0,0,0,3.17-2.37A4.76,4.76,0,0,0,35,34.73q0-2.4-3-3.4A36.2,36.2,0,0,0,24.63,30l-5.42-.57a74.26,74.26,0,0,1-7.6-1.06,18.16,18.16,0,0,1-4.36-1.63,11.65,11.65,0,0,1-4.86-4.81A13.48,13.48,0,0,1,.84,15.35a13.76,13.76,0,0,1,4-10.12Q10.13,0,20.9,0a39.29,39.29,0,0,1,9.78,1.34A41.53,41.53,0,0,1,42.72,7.21Zm20.41,8.84v33H54.61V.85h8.45l31.6,32.33V.85h8.52V49.09h-7.6Zm63.62,11.88V41.17H161.3v7.92H117.39V.85h43.07V8.77H126.75V20.23H149.9v7.71Zm78.4,8.84H182.63L176.5,49.09h-8.59L190.16.85h8.3l22.8,48.24h-10Zm-2.53-6.58L194,13,185.3,30.2ZM248,26.53l-7.88,5.94V49.09h-9.36V.85h9.36V21.43L265.53.85h12.39L254.83,20.37l23.08,28.72H266.45Zm49.9,1.41V41.17h34.55v7.92H288.54V.85h43.07V8.77H297.9V20.23h23.15v7.71Zm54.75,1.49V49.09H343.3V.85h27.24a45.6,45.6,0,0,1,8.59.64,15.11,15.11,0,0,1,5.49,2.19,11.4,11.4,0,0,1,3.94,5,17.63,17.63,0,0,1,1.2,6.51Q389.75,27,376.3,29L390,49.09h-10.2L366.31,29.43Zm0-8h16.75a42.83,42.83,0,0,0,5.17-.21,10.65,10.65,0,0,0,2.92-.85,5.35,5.35,0,0,0,3-5.23q0-3.82-3-5.23A8.63,8.63,0,0,0,374.65,9a43.68,43.68,0,0,0-5.24-.21H352.66ZM401.57.85h24q8.66,0,13.3,2a19.3,19.3,0,0,1,9.71,9.69A29.31,29.31,0,0,1,451,25q0,12.45-7.39,19a18.68,18.68,0,0,1-7.35,3.93,40.93,40.93,0,0,1-10.73,1.17h-24Zm9.36,40.32h13.72q6.47,0,9.78-1.77,7-3.68,7-14.43,0-7.78-3.8-12a12,12,0,0,0-5.14-3.25,25.94,25.94,0,0,0-7.88-1H410.93Zm84-4.39H472.44l-6.12,12.31h-8.59L480,.85h8.3l22.8,48.24h-10Zm-2.53-6.58L483.84,13,475.11,30.2Zm37.51-.78V49.09h-9.36V.85h27.24a45.6,45.6,0,0,1,8.59.64,15.11,15.11,0,0,1,5.49,2.19,11.4,11.4,0,0,1,3.94,5,17.62,17.62,0,0,1,1.2,6.51Q567,27,553.58,29l13.72,20.09H557.1L543.59,29.43Zm0-8h16.75a42.85,42.85,0,0,0,5.17-.21,10.66,10.66,0,0,0,2.92-.85,5.35,5.35,0,0,0,3-5.23q0-3.82-3-5.23A8.63,8.63,0,0,0,551.93,9a43.68,43.68,0,0,0-5.24-.21H529.94Zm66.15,5.09-7.88,5.94V49.09h-9.36V.85h9.36V21.43L613.61.85H626L602.92,20.37,626,49.09H614.53Z"/></svg>