<svg xmlns="http://www.w3.org/2000/svg" xmlns:xlink="http://www.w3.org/1999/xlink" viewBox="0 0 50 50">
<path d="M33.7,34.5c-2.7,0-9-0.5-13.8-4.9c-3.6-3.4-5.5-8.3-5.4-14.6l0-0.5h6.6l0.1,0.4c0,0,1,4.6,1.6,6.2  l0.1,0.3l-0.3,0.2c-0.8,0.7-1.9,1.8-2.4,2.3c0.5,0.8,2.1,3.4,6.1,5.8l2.7-2.4l0.2,0c0,0,1.9,0.2,5.6,0.3l0.5,0v6.8l-0.5,0  C34.9,34.5,34.4,34.5,33.7,34.5z M15.5,15.5c0.1,5.8,1.8,10.3,5.1,13.4c4.9,4.5,11.9,4.6,13.8,4.6v-4.9c-2.8,0-4.4-0.2-5-0.2  L26.5,31l-0.3-0.2c-5.5-3.1-6.9-6.6-7-6.7l-0.1-0.3l0.2-0.2c0.1-0.1,1.4-1.4,2.4-2.4c-0.6-1.6-1.2-4.6-1.5-5.6H15.5z"/>
</svg>