<svg xmlns="http://www.w3.org/2000/svg" xmlns:xlink="http://www.w3.org/1999/xlink" viewBox="0 0 149 185.3"><path d="M73.4,103.9c1.4-1.9,2.1-3.9,2.1-6.1c0-3.2-1.7-5.4-5.2-6.7c-1.1-0.5-2.9-1-5.2-1.4c-3.1,5.4-4.6,12.4-4.6,21.1	c0,0.1,0,0.2,0,0.2c2.7-0.5,5.2-1.3,7.4-2.5C70.2,107.4,72,105.8,73.4,103.9z"/><path d="M89,84.9c1.5,3.7,2.3,7.7,2.3,11.9c0,6.7-1.8,12.7-5.4,17.9c-3.4,4.8-8.5,8.3-15.6,10.6c-2.4,0.8-4.8,1.3-7.4,1.7	c2,5.8,5.4,10.2,10.1,13c3.9,2.4,9.7,3.6,17.3,3.6h24.3h0V77.9H90.3c-1.9,0-3.7,0.1-5.4,0.2C86.6,80.1,87.9,82.3,89,84.9z"/><path d="M0,0v185.3h149V0H0z M131.2,159.7H88.7c-7.7,0-14.1-0.8-19-2.4c-5-1.6-9.3-4.2-13-8c-5.7-5.8-9.5-13.2-11.5-22.2	c-9.1-1.6-19.3-5.8-30.7-12.7l5.5-16.2c3.2,3.1,8.3,6.1,15.3,9c2.9,1.2,5.6,2.1,8.2,2.9c0.1-8.6,1.3-16.3,3.7-22.9	c-5.9-0.7-10.1-1.4-12.5-2c-2.5-0.7-5.1-1.7-7.6-3.2c-3.6-2.2-6.4-5.3-8.5-9.5c-1.8-3.7-2.7-8.1-2.7-13c0-8,2.3-14.7,7-20	c6.1-6.9,15.5-10.4,28-10.4c5.3,0,11,0.9,17,2.7c6.1,1.8,13.1,5.6,21,11.6l-7.2,15.1c-7.9-8.2-18-12.6-30.3-13.3	c-4.4,0-8.3,0.6-11.8,1.8c-2.6,0.9-4.7,2.3-6.3,4.2S31,55.2,31,57.4c0,3.5,2.1,6,6.4,7.3c2,0.7,6.2,1.3,12.8,2.1l9.7,1.1	c0.6,0.1,1.1,0.1,1.6,0.2c1.2-0.8,2.4-1.5,3.7-2.2c5.5-2.7,13.4-4,23.6-4h42.5V159.7z"/></svg>