<svg xmlns="http://www.w3.org/2000/svg" xmlns:xlink="http://www.w3.org/1999/xlink"
	 viewBox="0 0 496.135 496.135">
		<path d="M257.727,0.866c-8.64-1.252-17.422-1.146-26.029,0.314C150.139,6.57,76.488,51.842,34.85,122.177
			c-0.576,0.956-0.945,2.022-1.082,3.13c-3.941,5.253-7.214,10.976-9.745,17.036l-0.619,1.338
			C-10.299,216.23-6.935,300.583,32.44,370.217s109.922,115.998,189.464,124.514c8.605,0.918,17.252,1.373,25.906,1.363
			c0.083,0,0.149,0.041,0.223,0.041c0.074,0,0.149-0.041,0.231-0.041c82.37,0.054,159.335-40.998,205.172-109.436
			c0.696-0.719,1.256-1.558,1.652-2.477c26.499-40.348,40.653-87.549,40.729-135.82c0-0.198,0-0.396,0-0.595V247.7v-0.099
			C495.228,114.91,390.312,6.184,257.727,0.866z M16.847,248.36c0.008-33.734,7.352-67.062,21.521-97.676l0.636-1.354
			c2.236-5.935,5.582-11.388,9.86-16.07c1.523-1.525,3.326-2.741,5.31-3.584c3.582-1.627,7.462-2.493,11.396-2.544
			c2.412-0.053,4.806,0.427,7.011,1.404c3.138,1.58,5.366,4.527,6.028,7.977c0.731,7.42-0.661,14.894-4.013,21.554
			c-5.303,10.431-6.531,22.464-3.444,33.751c5.599,14.328,21.017,20.497,32.264,23.948l1.528,0.438
			c9.009,1.384,17.364,5.537,23.907,11.883c2.94,4.983,4.799,10.529,5.459,16.277c0.999,6.843,3.09,13.482,6.194,19.662
			c9.753,17.581,31.504,22.842,44.494,25.988c18.069,4.369,36.129,8.902,54.123,13.444l0.636,0.14v21.892
			c-3.086,1.526-5.88,3.58-8.258,6.07c-5.129,6.093-9.22,12.99-12.106,20.414c-1.536,3.419-2.998,6.606-4.558,9.365
			c-2.993,5.511-7.023,10.393-11.867,14.377c-2.133,1.488-4.41,2.758-6.796,3.79c-5.027,2.036-9.587,5.073-13.403,8.927
			c-4.203,5.166-6.974,11.346-8.035,17.92c-0.588,3.024-1.534,5.968-2.816,8.77c-3.851,6.569-6.055,13.973-6.425,21.578
			c0.916,13.173,8.097,25.105,19.307,32.083c1.734,1.247,3.518,2.387,5.293,3.501C87.905,446.086,16.547,353.853,16.847,248.36z
			 M239.815,479.388c-4.228-0.154-8.357-0.413-12.387-0.776c-6.421-6.555-13.827-12.066-21.95-16.334
			c-3.947-2.296-7.672-4.476-11.041-6.887c-6.65-4.17-11.18-11.005-12.428-18.754c0.461-4.921,2.028-9.675,4.583-13.907
			c1.912-3.963,3.322-8.149,4.195-12.461c0.54-3.86,1.983-7.538,4.212-10.735c2.407-2.221,5.208-3.971,8.258-5.161
			c3.46-1.519,6.744-3.411,9.794-5.64c6.544-5.294,11.996-11.809,16.054-19.183c1.982-3.435,3.675-7.193,5.318-10.826
			c1.6-3.642,3.4-7.193,5.393-10.636V479.388z M239.815,286.579c-16.913-4.261-33.858-8.531-50.87-12.643
			c-14.039-3.386-28.185-7.564-33.957-17.961c-2.215-4.703-3.705-9.715-4.418-14.865c-1.046-8.174-3.917-16.009-8.398-22.924
			c-8.575-9.459-20.075-15.769-32.661-17.92l-1.354-0.388c-7.829-2.387-18.572-6.45-21.529-14.039
			c-1.375-7.569-0.131-15.38,3.526-22.148c4.67-9.711,6.233-20.625,4.476-31.257c-1.853-8.183-7.321-15.082-14.865-18.754
			c-5.485-2.509-11.538-3.515-17.54-2.915c29.139-39.513,70.205-68.617,117.141-83.018c10.939,13.346,27.011,21.445,44.247,22.297
			c1.016,0.05,2.015,0.074,3.014,0.074c3.881,0,7.63-0.347,11.297-0.694c0.644-0.058,1.214-0.058,1.85-0.116v151.42
			c-6.457-3.051-13.87-3.379-20.571-0.908c-10.626,4.039-17.643,14.232-17.623,25.6c0,18.647,14.592,29.415,26.31,38.061
			c1.47,1.09,2.94,2.172,4.311,3.212c2.843,2.498,5.397,5.307,7.614,8.374V286.579z M239.815,251.771l-2.081-1.552
			c-11.834-8.737-19.596-15.187-19.596-24.865c0.007-4.52,2.823-8.56,7.061-10.133c3.427-1.338,6.483-0.107,12.04,2.345
			c0.892,0.396,1.709,0.718,2.577,1.082V251.771z M239.815,32.717c-1.14,0.099-2.287,0.182-3.402,0.289
			c-3.97,0.472-7.969,0.659-11.966,0.562c-9.872-0.538-19.291-4.311-26.806-10.735c13.861-3.1,27.979-4.913,42.174-5.417V32.717z
			 M479.076,239.417l-90.723,0.025c-0.486-32.048-4.766-63.926-12.75-94.968c23.112-4.613,45.788-11.188,67.782-19.654
			C465.229,159.18,477.547,198.729,479.076,239.417z M433.879,110.963c-20.455,7.527-41.478,13.412-62.869,17.598
			c-13.964-44.445-35.51-80.64-61.935-103.176C359.073,39.159,403.013,69.289,433.879,110.963z M256.331,17.341h0.264
			c0.33,0.066,0.71,0.091,1.082,0.157c0.223,0.058,0.462,0.116,0.685,0.157c40.952,7.556,76.172,52.026,96.116,114.011
			c-32.445,5.389-65.259,8.261-98.147,8.588V17.341z M256.331,156.696c34.474-0.267,68.872-3.271,102.871-8.985
			c7.859,29.963,12.101,60.759,12.635,91.731H256.331V156.696z M256.331,338.687v-44.04c0.033-0.398,0.033-0.799,0-1.197v-37.492
			h115.497c-0.469,30.961-4.599,61.757-12.305,91.747c-34.104-5.74-68.61-8.752-103.193-9.01V338.687z M256.331,478.042V355.137
			c33.022,0.322,65.969,3.207,98.543,8.63c-20.249,63.529-56.485,107.867-98.543,114.283V478.042z M403.465,419.542
			c-27.682,25.166-61.077,43.212-97.297,52.579c27.442-22.346,50.143-59.417,64.694-105.348
			c21.735,4.233,43.087,10.237,63.843,17.953C425.497,397.358,415.03,409.024,403.465,419.542z M444.045,370.819
			c-22.226-8.631-45.159-15.315-68.542-19.976c8.059-31.002,12.381-62.857,12.874-94.885h90.723
			C477.718,296.661,465.627,336.28,444.045,370.819z"/>
</svg>