<!-- <svg xmlns="http://www.w3.org/2000/svg" viewBox="0 0 14 44"><path d="M12.5 15h-1.81c-.28-1.86-2.04-3-3.69-3s-3.42 1.14-3.69 3H1.5c-.83 0-1.5.67-1.5 1.5v11c0 .83.67 1.5 1.5 1.5h11c.83 0 1.5-.67 1.5-1.5v-11c0-.83-.67-1.5-1.5-1.5zM7 13c1.18 0 2.43.75 2.7 2H4.3c.27-1.25 1.52-2 2.7-2zm6 14.5c0 .28-.22.5-.5.5h-11c-.28 0-.5-.22-.5-.5v-11c0-.28.22-.5.5-.5h11c.28 0 .5.22.5.5v11z"/></svg> -->
<svg viewBox="0 0 9 12" xmlns="http://www.w3.org/2000/svg"><path d="M8.19 4.02H6.12V2.59a2.2 2.2 0 0 0-.54-1.44A1.85 1.85 0 0 0 5 .71a1.67 1.67 0 0 0-1.43 0 2.05 2.05 0 0 0-.98 1.08c-.1.25-.14.52-.14.8v1.43H.38a.25.25 0 0 0-.2.09.33.33 0 0 0-.08.21v6.55a.33.33 0 0 0 .09.22.26.26 0 0 0 .19.08l2.38.38H5.8l2.39-.38c.03 0 .07 0 .1-.02a.27.27 0 0 0 .15-.16.33.33 0 0 0 .02-.12V4.33a.33.33 0 0 0-.08-.21.25.25 0 0 0-.2-.09zm-5.2-1.43c0-.4.14-.76.38-1.02.23-.26.56-.42.91-.42.36 0 .68.16.92.42.23.26.38.62.38 1.01v1.44h-2.6V2.59z"></path><path d="M3.42 4.9c0 .2-.16.37-.35.37-.19 0-.34-.17-.34-.38 0-.2.15-.38.34-.38.2 0 .35.17.35.38M6.6 4.9c0 .2-.16.37-.35.37-.2 0-.35-.17-.35-.38 0-.2.16-.38.35-.38.19 0 .34.17.34.38"></path></svg>